<svg width="367" height="136" viewBox="0 0 367 136" fill="none" xmlns="http://www.w3.org/2000/svg">
<g clip-path="url(#clip0_311_13)">
<path d="M189.475 45.0462L206.935 43.9201C207.334 46.7686 208.064 48.8884 209.259 50.412C211.184 52.7968 213.84 53.9892 217.359 53.9892C219.948 53.9892 222.006 53.393 223.4 52.1344C224.728 51.1407 225.524 49.5508 225.524 47.8947C225.524 46.3049 224.794 44.7812 223.533 43.7876C222.205 42.5952 219.085 41.4028 214.172 40.3428C206.139 38.5542 200.363 36.1694 196.977 33.1222C193.591 30.2737 191.666 26.1003 191.799 21.6619C191.799 18.6146 192.728 15.5674 194.454 13.0501C196.446 10.2016 199.168 7.94928 202.421 6.69063C205.94 5.167 210.852 4.37207 217.027 4.37207C224.595 4.37207 230.371 5.76321 234.354 8.61172C238.338 11.394 240.728 15.8986 241.458 22.0594L224.197 23.053C223.732 20.4032 222.802 18.4822 221.275 17.2235C219.749 15.9649 217.757 15.3687 215.168 15.3687C213.043 15.3687 211.45 15.8324 210.388 16.6936C209.392 17.4885 208.728 18.6809 208.794 20.0058C208.794 20.9994 209.325 21.9269 210.122 22.5231C210.985 23.318 213.043 24.0467 216.296 24.7091C224.329 26.4315 230.039 28.1539 233.558 29.9425C237.076 31.7311 239.599 33.9171 241.126 36.5007C242.719 39.1504 243.516 42.1977 243.45 45.3112C243.45 49.0209 242.387 52.7306 240.263 55.8441C238.072 59.09 235.018 61.6073 231.433 63.131C227.649 64.7871 222.869 65.6483 217.159 65.6483C207.068 65.6483 200.097 63.7272 196.18 59.8187C192.263 55.9103 189.94 51.0082 189.475 45.0462ZM4.18253 64.6546V5.43198H34.788C40.4311 5.43198 44.8128 5.89569 47.8003 6.88936C50.7214 7.81679 53.3106 9.73788 55.0367 12.3214C56.962 15.1699 57.8915 18.4822 57.8251 21.9269C58.0242 27.7564 55.0367 33.3209 49.9247 36.2357C47.9331 37.3618 45.7422 38.1568 43.485 38.5542C45.1447 39.018 46.8045 39.8129 48.265 40.7403C49.3936 41.6677 50.3231 42.7276 51.1861 43.8538C52.182 44.98 53.045 46.2386 53.7753 47.5635L62.6715 64.7208H41.8253L31.9996 46.5036C30.7382 44.185 29.676 42.6614 28.6802 41.9327C27.3524 41.0053 25.759 40.5416 24.1657 40.5416H22.5724V64.5883H4.18253V64.6546ZM22.5724 29.4125H30.3399C31.9996 29.28 33.593 29.015 35.1863 28.6176C36.3813 28.4188 37.4436 27.7564 38.1738 26.7627C39.9664 24.3779 39.7008 20.9994 37.5099 18.9459C36.3149 17.9522 33.9913 17.4222 30.6719 17.4222H22.5724V29.4125ZM0 115.398L17.4604 114.272C17.8587 117.12 18.589 119.24 19.784 120.764C21.6429 123.148 24.3649 124.407 27.8835 124.407C30.4727 124.407 32.5308 123.811 33.9249 122.552C35.2527 121.492 36.0494 119.969 36.0494 118.313C36.0494 116.723 35.3191 115.199 34.0577 114.205C32.7299 113.013 29.6096 111.821 24.6304 110.761C16.5973 108.972 10.8215 106.587 7.4356 103.54C4.04975 100.692 2.12446 96.5182 2.25724 92.0798C2.25724 89.0326 3.18669 85.9853 4.91281 83.468C6.90449 80.6195 9.62645 78.3672 12.8795 77.1086C16.3982 75.5849 21.311 74.79 27.4852 74.79C35.0535 74.79 40.8294 76.1811 44.8128 79.0297C48.7961 81.8782 51.1198 86.3165 51.85 92.4773L34.5888 93.471C34.1241 90.8212 33.1946 88.9001 31.6677 87.6414C30.2071 86.3828 28.1491 85.7866 25.5599 85.8528C23.4354 85.8528 21.8421 86.3165 20.7798 87.244C19.7176 88.0389 19.1201 89.2313 19.1865 90.5562C19.1865 91.5499 19.7176 92.4773 20.5143 93.0735C21.3774 93.8684 23.4354 94.5971 26.6885 95.2596C34.7216 96.9819 40.4311 98.7043 43.9497 100.493C47.4683 102.281 49.9911 104.468 51.5181 107.051C53.1114 109.701 53.9081 112.748 53.9081 115.795C53.9081 119.505 52.7795 123.149 50.7214 126.262C48.5306 129.508 45.4767 132.025 41.8916 133.549C38.1075 135.205 33.3274 136.066 27.6179 136.066C17.5268 136.066 10.5559 134.145 6.63893 130.237C2.72196 126.262 0.531114 121.36 0 115.398H0Z" fill="black"/>
<path d="M88.2977 110.761L104.364 115.597C103.501 119.638 101.708 123.48 99.2519 126.858C96.9947 129.839 94.0072 132.158 90.6213 133.681C87.1691 135.205 82.7874 136 77.4762 136C71.0365 136 65.7253 135.073 61.6756 133.218C57.5595 131.363 54.0408 128.051 51.0533 123.347C48.0658 118.644 46.6052 112.616 46.6052 105.263C46.6052 95.4583 49.1944 87.9065 54.4392 82.6731C59.6839 77.4398 67.0531 74.79 76.6132 74.79C84.1152 74.79 89.9574 76.3137 94.2727 79.2947C98.5217 82.3419 101.708 86.979 103.833 93.206L87.6338 96.7832C87.2355 95.3921 86.638 94.001 85.8413 92.8086C84.8455 91.4174 83.5841 90.3575 82.0571 89.5626C80.5302 88.7676 78.804 88.4364 77.0779 88.4364C72.8954 88.4364 69.7087 90.0925 67.5179 93.471C65.8581 95.922 64.9951 99.8305 64.9951 105.13C64.9951 111.688 65.9909 116.193 67.9826 118.644C69.9743 121.095 72.7626 122.287 76.414 122.287C79.9327 122.287 82.5882 121.294 84.3807 119.373C86.1732 117.319 87.501 114.471 88.2977 110.761ZM125.808 75.7837H144.131V96.5182H164.181V75.7837H182.637V135.006H164.181V111.026H144.131V135.006H125.808V75.7837Z" fill="black"/>
<path d="M180.114 105.395C180.114 95.7234 182.836 88.1715 188.214 82.8057C193.591 77.4399 201.16 74.7239 210.786 74.7239C220.678 74.7239 228.246 77.3737 233.624 82.6732C239.002 87.9728 241.657 95.3922 241.657 104.931C241.657 111.887 240.462 117.518 238.139 121.956C235.881 126.328 232.363 129.906 228.047 132.29C223.599 134.741 218.089 136 211.516 136C204.811 136 199.301 134.94 194.919 132.82C190.405 130.568 186.687 127.057 184.23 122.751C181.508 118.114 180.114 112.351 180.114 105.395ZM198.438 105.461C198.438 111.423 199.566 115.729 201.757 118.379C203.948 120.963 207.002 122.287 210.853 122.287C214.769 122.287 217.823 121.029 220.014 118.445C222.205 115.862 223.267 111.291 223.267 104.666C223.267 99.1019 222.139 94.9947 219.881 92.4774C217.624 89.8939 214.57 88.6352 210.72 88.6352C207.334 88.5027 204.081 89.9601 201.824 92.5436C199.566 95.1272 198.438 99.4331 198.438 105.461ZM260.445 105.395C260.445 95.7234 263.167 88.1715 268.545 82.8057C273.922 77.4399 281.491 74.7239 291.117 74.7239C301.009 74.7239 308.644 77.3737 313.955 82.6732C319.266 87.9728 321.988 95.3922 321.988 104.931C321.988 111.887 320.793 117.518 318.47 121.956C316.212 126.328 312.694 129.906 308.378 132.29C303.93 134.741 298.42 136 291.847 136C285.142 136 279.632 134.94 275.25 132.82C270.736 130.568 267.018 127.057 264.561 122.751C261.839 118.114 260.445 112.351 260.445 105.395ZM278.769 105.461C278.769 111.423 279.897 115.729 282.088 118.379C284.279 120.963 287.333 122.287 291.184 122.287C295.101 122.287 298.154 121.029 300.345 118.445C302.536 115.862 303.598 111.291 303.598 104.666C303.598 99.1019 302.47 94.9947 300.213 92.4774C297.955 89.8939 294.901 88.6352 291.051 88.6352C287.665 88.5027 284.345 89.9601 282.155 92.5436C279.897 95.1272 278.769 99.4331 278.769 105.461Z" fill="black"/>
<path d="M320.063 75.7837H338.386V120.432H367V135.006H319.996V75.7837H320.063Z" fill="black"/>
<path d="M299.866 72.3659C318.314 58.4943 324.003 34.9797 312.572 19.8446C301.142 4.7095 276.921 3.68523 258.473 17.5568C240.025 31.4284 234.337 54.943 245.767 70.0781C257.197 85.2132 281.419 86.2375 299.866 72.3659Z" fill="white"/>
<path d="M198.72 37.4551L294.05 -34.2274L360.016 53.118L264.685 124.8L198.72 37.4551Z" fill="white"/>
<path d="M299.866 72.3662C318.314 58.4946 324.003 34.98 312.572 19.8449C301.142 4.70975 276.921 3.68547 258.473 17.5571C240.025 31.4287 234.337 54.9433 245.767 70.0784C257.197 85.2135 281.419 86.2378 299.866 72.3662Z" fill="white"/>
<path d="M225.266 43.2876L292.019 -6.9049L333.452 47.9578L266.698 98.1503L225.266 43.2876Z" fill="white"/>
<path d="M299.866 72.3659C318.314 58.4943 324.003 34.9797 312.572 19.8446C301.142 4.7095 276.921 3.68523 258.473 17.5568C240.025 31.4284 234.337 54.943 245.767 70.0781C257.197 85.2132 281.419 86.2375 299.866 72.3659Z" fill="white" stroke="black" stroke-width="4" stroke-miterlimit="10"/>
<path d="M225.266 43.2876L292.019 -6.9049L333.452 47.9578L266.698 98.1503L225.266 43.2876Z" stroke="black" stroke-width="4" stroke-miterlimit="10"/>
<path d="M299.866 72.3662C318.314 58.4946 324.003 34.98 312.572 19.8449C301.142 4.70975 276.921 3.68547 258.473 17.5571C240.025 31.4287 234.337 54.9433 245.767 70.0784C257.197 85.2135 281.419 86.2378 299.866 72.3662Z" stroke="black" stroke-width="4" stroke-miterlimit="10"/>
<path d="M225.266 43.2876L292.019 -6.9049L333.452 47.9578L266.698 98.1503L225.266 43.2876Z" fill="white"/>
<path d="M299.866 72.3659C318.314 58.4943 324.003 34.9797 312.572 19.8446C301.142 4.7095 276.921 3.68523 258.473 17.5568C240.025 31.4284 234.337 54.943 245.767 70.0781C257.197 85.2132 281.419 86.2375 299.866 72.3659Z" fill="white" stroke="black" stroke-width="4" stroke-miterlimit="10"/>
<path d="M225.266 43.2876L292.019 -6.9049L333.452 47.9578L266.698 98.1503L225.266 43.2876Z" stroke="black" stroke-width="4" stroke-miterlimit="10"/>
<path d="M198.72 37.4551L294.05 -34.2274L360.016 53.118L264.685 124.8L198.72 37.4551Z" stroke="black" stroke-width="4" stroke-miterlimit="10"/>
<path d="M299.866 72.3662C318.314 58.4946 324.003 34.98 312.572 19.8449C301.142 4.70975 276.921 3.68547 258.473 17.5571C240.025 31.4287 234.337 54.9433 245.767 70.0784C257.197 85.2135 281.419 86.2378 299.866 72.3662Z" stroke="black" stroke-width="4" stroke-miterlimit="10"/>
<path d="M260.512 40.6079L267.15 35.9708L275.316 47.5636C276.711 49.4185 277.773 51.4058 278.569 53.5919C279.034 55.248 278.901 57.0366 278.237 58.6264C277.374 60.6138 275.98 62.2699 274.121 63.4623C271.931 64.9859 270.072 65.8471 268.478 66.1121C266.951 66.377 265.358 66.1121 263.897 65.4496C262.304 64.6547 260.91 63.5285 259.848 62.0712L265.557 56.7716C266.022 57.5003 266.619 58.1627 267.283 58.6927C267.748 59.0239 268.279 59.2226 268.877 59.2226C269.341 59.2226 269.806 59.0239 270.138 58.7589C270.802 58.3615 271.267 57.5665 271.2 56.7716C271.001 55.6454 270.536 54.5193 269.806 53.6581L260.512 40.6079ZM280.428 47.9611L286.47 43.1915C287.134 43.9864 287.997 44.5826 288.926 44.9138C290.254 45.3113 291.648 45.0463 292.777 44.1851C293.573 43.6552 294.237 42.9265 294.503 41.9991C294.901 40.8067 294.237 39.4818 293.042 39.0843C292.843 39.0181 292.644 38.9518 292.445 38.9518C291.648 38.8856 290.254 39.2168 288.196 40.078C284.81 41.4691 282.154 41.9991 280.163 41.8003C278.237 41.6016 276.445 40.6079 275.383 38.9518C274.586 37.8257 274.188 36.5008 274.121 35.1759C274.121 33.6523 274.52 32.1286 275.383 30.87C276.644 29.0814 278.171 27.5578 280.03 26.3654C282.818 24.4443 285.275 23.5168 287.399 23.5168C289.524 23.5168 291.515 24.5105 293.374 26.5641L287.399 31.2675C286.204 29.7438 283.947 29.4126 282.42 30.605L282.221 30.8037C281.557 31.2012 281.092 31.7974 280.827 32.5261C280.628 33.0561 280.76 33.6523 281.092 34.116C281.358 34.4472 281.756 34.7122 282.221 34.7122C282.752 34.7784 283.681 34.5134 285.009 33.9172C288.329 32.5261 290.851 31.7312 292.578 31.4662C294.038 31.2012 295.565 31.3337 296.959 31.9299C298.221 32.4599 299.283 33.3873 300.013 34.5134C300.943 35.8383 301.474 37.4282 301.54 39.0843C301.607 40.8067 301.142 42.4628 300.212 43.9202C299.017 45.7088 297.49 47.2324 295.698 48.4248C292.046 50.9421 289.059 52.002 286.669 51.6045C284.08 51.2071 281.955 49.8822 280.428 47.9611Z" fill="black"/>
</g>
<defs>
<clipPath id="clip0_311_13">
<rect width="367" height="136" fill="white"/>
</clipPath>
</defs>
</svg>
