<svg width="90" height="90" viewBox="0 0 90 90" fill="none" xmlns="http://www.w3.org/2000/svg">
<path d="M57.6 67.05C58.05 67.5 58.575 67.725 59.175 67.725C59.775 67.725 60.3 67.5 60.75 67.05L67.05 60.75C67.5 60.3 67.725 59.775 67.725 59.175C67.725 58.575 67.5 58.05 67.05 57.6L51.75 42.1875C52.05 41.3625 52.275 40.5375 52.425 39.7125C52.575 38.8875 52.65 37.95 52.65 36.9C52.65 32.625 51.132 28.968 48.096 25.929C45.057 22.893 41.4 21.375 37.125 21.375C35.85 21.375 34.575 21.543 33.3 21.879C32.025 22.218 30.7875 22.6875 29.5875 23.2875L40.1625 33.8625L33.8625 40.1625L23.2875 29.5875C22.6875 30.7875 22.2195 32.025 21.8835 33.3C21.5445 34.575 21.375 35.85 21.375 37.125C21.375 41.4 22.8945 45.057 25.9335 48.096C28.9695 51.132 32.625 52.65 36.9 52.65C37.875 52.65 38.793 52.575 39.654 52.425C40.518 52.275 41.3625 52.05 42.1875 51.75L57.6 67.05ZM45 90C38.775 90 32.925 88.818 27.45 86.454C21.975 84.093 17.2125 80.8875 13.1625 76.8375C9.1125 72.7875 5.907 68.025 3.546 62.55C1.182 57.075 0 51.225 0 45C0 38.775 1.182 32.925 3.546 27.45C5.907 21.975 9.1125 17.2125 13.1625 13.1625C17.2125 9.1125 21.975 5.9055 27.45 3.5415C32.925 1.1805 38.775 0 45 0C51.225 0 57.075 1.1805 62.55 3.5415C68.025 5.9055 72.7875 9.1125 76.8375 13.1625C80.8875 17.2125 84.093 21.975 86.454 27.45C88.818 32.925 90 38.775 90 45C90 51.225 88.818 57.075 86.454 62.55C84.093 68.025 80.8875 72.7875 76.8375 76.8375C72.7875 80.8875 68.025 84.093 62.55 86.454C57.075 88.818 51.225 90 45 90Z" fill="black"/>
</svg>
