<svg width="90" height="90" viewBox="0 0 90 90" fill="none" xmlns="http://www.w3.org/2000/svg">
<g clip-path="url(#clip0_308_29)">
<path d="M45.3905 -1.27421e-06C27.6782 -0.0306913 11.0071 10.4231 3.35609 26.9702L24.8692 27.0212V29.363C18.2448 28.5695 18.8281 31.9935 19.7659 35.6276L33.8882 70.8562L44.2682 46.6379L39.5031 35.2882C37.7722 32.2483 37.7357 28.8757 30.6546 29.1933L30.754 27.0353L62.3061 27.1117V29.5299C58.6111 29.7456 54.163 28.6052 56.5209 36.1367L69.2821 69.5015L76.2581 50.0233C78.5424 41.8582 76.3925 34.0115 73.678 26.3169C72.1682 21.155 72.8723 16.844 79.6395 15.1339C69.3102 4.6395 57.1218 0.0203387 45.3905 -1.27421e-06ZM88.3029 30.8025L67.8468 83.8745C73.496 79.0046 79.2884 77.232 86.3763 63.7572C91.0923 52.5493 90.6068 42.1665 88.3029 30.8025ZM1.19085 31.6623C-0.805761 47.3299 -0.623109 51.9188 4.31936 64.7132C10.7619 76.9671 15.7579 79.5488 22.8488 84.3554L1.19085 31.6623ZM46.189 51.542L31.0296 87.9472C41.6705 90.9702 51.1917 90.5918 59.9078 87.2288L46.189 51.542Z" fill="black"/>
</g>
<defs>
<clipPath id="clip0_308_29">
<rect width="90" height="90" fill="white"/>
</clipPath>
</defs>
</svg>
