<svg width="90" height="91" viewBox="0 0 90 91" fill="none" xmlns="http://www.w3.org/2000/svg">
<path fill-rule="evenodd" clip-rule="evenodd" d="M0 45.3682C0 20.3121 20.1473 0 45 0C69.8528 0 90 20.3121 90 45.3682C90 70.4242 69.8528 90.7363 45 90.7363C20.1473 90.7363 0 70.4242 0 45.3682ZM36 72.5891C40.9706 72.5891 45 68.5266 45 63.5154V54.4418H36C31.0294 54.4418 27 58.5042 27 63.5154C27 68.5266 31.0294 72.5891 36 72.5891ZM27 45.3682C27 50.3794 31.0294 54.4418 36 54.4418H45V36.2945H36C31.0294 36.2945 27 40.3569 27 45.3682ZM27 27.2209C27 32.2321 31.0294 36.2945 36 36.2945H45V18.1473H36C31.0294 18.1473 27 22.2097 27 27.2209ZM45 18.1473V36.2945H54C58.9706 36.2945 63 32.2321 63 27.2209C63 22.2097 58.9706 18.1473 54 18.1473H45ZM63 45.3682C63 40.3569 58.9706 36.2945 54 36.2945C49.0294 36.2945 45 40.3569 45 45.3682C45 50.3794 49.0294 54.4418 54 54.4418C58.9706 54.4418 63 50.3794 63 45.3682Z" fill="black"/>
</svg>
