<svg width="90" height="90" viewBox="0 0 90 90" fill="none" xmlns="http://www.w3.org/2000/svg">
<path d="M19.05 0H23.1075V4.00875H26.82V0H30.8775V12.135H26.82V8.07375H23.1075V12.135H19.0537V0H19.05ZM36.21 4.02375H32.64V0H43.8412V4.02375H40.2675V12.135H36.21V4.02375ZM45.6187 0H49.8487L52.4512 4.26375L55.05 0H59.28V12.135H55.2412V6.12L52.4512 10.4362H52.38L49.5862 6.12375V12.135H45.6187V0ZM61.2975 0H65.3587V8.12625H71.0587V12.1388H61.2975V0Z" fill="black"/>
<path fill-rule="evenodd" clip-rule="evenodd" d="M18.9225 82.77L11.25 17.6888H78.75L71.0737 82.7625L44.9625 90L18.9225 82.77ZM34.4362 47.145L33.7088 38.97H64.2525L64.965 30.99H24.99L27.1425 55.1288H54.8062L53.88 65.4788L44.9775 67.8863H44.97L36.0825 65.4863L35.5125 59.1225H27.495L28.6125 71.655L44.9625 76.1925L61.3388 71.655L63.3337 49.29L63.5288 47.1488H34.4362V47.145Z" fill="black"/>
</svg>
