<svg width="90" height="91" viewBox="0 0 90 91" fill="none" xmlns="http://www.w3.org/2000/svg">
<ellipse cx="45" cy="45.3682" rx="45" ry="45.3682" fill="black"/>
<path fill-rule="evenodd" clip-rule="evenodd" d="M23 29.7578V61.2628C23 61.5383 23.1204 61.6608 23.3611 61.6608H29.1991C29.4097 61.6302 29.5602 61.4465 29.5301 61.2322V51.4041C30.1018 51.4041 30.5232 51.4041 30.8241 51.4347C31.125 51.4653 31.6065 51.4653 32.3287 51.4653C34.7963 51.4653 37.0532 51.1898 39.0995 50.4243C41.0556 49.6895 42.7407 48.4036 43.9444 46.689C45.1481 44.9745 45.75 42.8007 45.75 40.1676C45.75 38.7898 45.5093 37.4733 45.0579 36.1874C44.5764 34.8708 43.8241 33.6768 42.8611 32.697C41.7176 31.5642 40.3333 30.7069 38.8287 30.1864C37.1435 29.5434 35.0972 29.2373 32.6296 29.2373C31.7269 29.2373 30.8241 29.2373 29.8912 29.2679C29.4408 29.2827 29.0045 29.2903 28.5822 29.2977C28.1297 29.3056 27.6934 29.3133 27.2731 29.3291C26.8791 29.344 26.4992 29.3516 26.13 29.3591C25.738 29.3669 25.358 29.3746 24.9861 29.3904C24.294 29.421 23.8125 29.421 23.3009 29.421C23.0903 29.421 23 29.5434 23 29.7578ZM29.5602 45.6174V35.3301C29.7708 35.2995 30.1921 35.2688 30.794 35.2995C31.3657 35.2688 32.0579 35.2688 32.8403 35.2688C34.0741 35.2382 35.2778 35.4219 36.3912 35.8812C37.2639 36.218 37.9861 36.8303 38.4977 37.6264C38.9792 38.453 39.2199 39.4022 39.1898 40.3513C39.1898 41.6984 38.8889 42.7394 38.2569 43.5049C37.5949 44.2703 36.7523 44.852 35.7894 45.1276C34.6759 45.495 33.5023 45.6787 32.3287 45.6787H30.7338C30.3986 45.6787 30.0375 45.6523 29.6505 45.624C29.6205 45.6218 29.5904 45.6196 29.5602 45.6174Z" fill="white"/>
<path d="M64.5278 43.7498C63.625 43.2599 62.662 42.9231 61.6389 42.7088C60.5255 42.4639 59.412 42.3108 58.2685 42.3108C57.6667 42.2802 57.0347 42.372 56.463 42.5251C56.0718 42.617 55.7407 42.8313 55.5301 43.1374C55.3796 43.3824 55.2894 43.6886 55.2894 43.9641C55.2894 44.2397 55.4097 44.5152 55.5903 44.7602C55.8611 45.0969 56.2222 45.3725 56.6134 45.5868C57.3056 45.9542 58.0278 46.291 58.75 46.5972C60.375 47.1483 61.9398 47.9137 63.3843 48.8322C64.3773 49.4752 65.1898 50.3325 65.7616 51.3735C66.2431 52.3532 66.4838 53.4248 66.4537 54.527C66.4838 55.966 66.0625 57.405 65.2801 58.5991C64.4375 59.8238 63.2639 60.7729 61.9097 61.324C60.4352 61.967 58.6296 62.3038 56.463 62.3038C55.0787 62.3038 53.7245 62.1813 52.3704 61.9057C51.3171 61.722 50.2639 61.3853 49.3009 60.926C49.0903 60.8035 48.9398 60.5892 48.9699 60.3443V55.0169C48.9699 54.925 49 54.8026 49.0903 54.7413C49.1806 54.6801 49.2708 54.7107 49.3611 54.772C50.5347 55.4761 51.7685 55.966 53.0926 56.2722C54.2361 56.5784 55.4398 56.7315 56.6435 56.7315C57.787 56.7315 58.5995 56.5784 59.1412 56.3028C59.6227 56.0885 59.9537 55.568 59.9537 55.0169C59.9537 54.5883 59.713 54.1902 59.2315 53.7922C58.75 53.3942 57.7569 52.9349 56.2824 52.3532C54.7477 51.8021 53.3333 51.0673 52.0093 50.1488C51.0764 49.4752 50.294 48.5873 49.7222 47.5463C49.2407 46.5666 49 45.495 49.0301 44.4234C49.0301 43.1068 49.3912 41.8515 50.0532 40.7187C50.8056 39.494 51.919 38.5143 53.213 37.9019C54.6273 37.1671 56.4028 36.8303 58.5394 36.8303C59.7732 36.8303 61.037 36.9222 62.2708 37.1059C63.1736 37.2283 64.0463 37.4733 64.8588 37.8101C64.9792 37.8407 65.0995 37.9632 65.1597 38.0856C65.1898 38.2081 65.2199 38.3306 65.2199 38.453V43.4436C65.2199 43.5661 65.1597 43.6886 65.0694 43.7498C64.7986 43.811 64.6482 43.811 64.5278 43.7498Z" fill="white"/>
</svg>
