<svg width="90" height="90" viewBox="0 0 90 90" fill="none" xmlns="http://www.w3.org/2000/svg">
<path d="M45 2.8125C26.5781 2.8125 10.9688 14.625 5.20312 30.9375H84.7969C79.0312 14.625 63.4219 2.8125 45 2.8125Z" fill="#428BC1"/>
<path d="M45 87.1875C63.4219 87.1875 79.0312 75.5156 84.7969 59.0625H5.20312C10.9688 75.5156 26.5781 87.1875 45 87.1875Z" fill="#83BF4F"/>
<path d="M5.20312 30.9375C3.65625 35.2969 2.8125 40.0781 2.8125 45C2.8125 49.9219 3.65625 54.7031 5.20312 59.0625H84.7969C86.3438 54.7031 87.1875 49.9219 87.1875 45C87.1875 40.0781 86.3438 35.2969 84.7969 30.9375H5.20312Z" fill="#ED4C5C"/>
<path d="M44.4375 56.5313C38.1094 56.5313 32.9063 51.3281 32.9063 45C32.9063 38.6719 38.1094 33.4687 44.4375 33.4687C45.9844 33.4687 47.3906 33.75 48.6562 34.3125C46.4062 32.625 43.5938 31.5 40.5 31.5C33.0469 31.5 27.1406 37.5469 27.1406 45C27.1406 52.4531 33.1875 58.5 40.5 58.5C43.5938 58.5 46.4062 57.5156 48.6562 55.6875C47.3906 56.25 45.9844 56.5313 44.4375 56.5313ZM56.8125 46.9688L53.7188 49.0781L55.6875 45.8437L52.0313 45L55.6875 44.1562L53.5781 41.0625L56.8125 43.0313L57.6563 39.375L58.5 43.0313L61.5938 40.9219L59.625 44.1562L63.2812 45L59.625 45.8437L61.7344 48.9375L58.5 46.9688L57.6563 50.625L56.8125 46.9688Z" fill="white"/>
</svg>
