<svg width="90" height="90" viewBox="0 0 90 90" fill="none" xmlns="http://www.w3.org/2000/svg">
<path d="M45 87.1875C68.2995 87.1875 87.1875 68.2995 87.1875 45C87.1875 21.7005 68.2995 2.8125 45 2.8125C21.7005 2.8125 2.8125 21.7005 2.8125 45C2.8125 68.2995 21.7005 87.1875 45 87.1875Z" fill="#00AFCA"/>
<path d="M79.7344 46.5469C78.75 45.9844 77.625 46.6876 77.625 47.6719C77.2031 54.5626 65.1094 56.3907 59.3438 56.3907C53.5781 56.5313 41.2031 54.4219 40.7813 47.6719C40.7813 46.6876 39.6563 46.1251 38.6719 46.5469C35.7188 48.0938 34.7344 51.0469 35.4375 54.0001C36.7031 59.3438 43.3125 63.1407 48.9375 64.8282C48.5156 65.8126 48.375 66.7969 48.2344 67.7813C48.0938 68.9063 49.7813 69.3282 50.625 68.6251C53.8594 66.2344 58.9219 65.2501 63.1406 65.2501C64.9688 65.2501 64.9688 62.7188 63.1406 62.7188C59.3438 62.7188 55.2656 63.4219 51.8906 64.9688C53.1563 62.0157 56.1094 59.0626 59.3438 58.9219H59.4844C66.2344 59.0626 77.0625 56.6719 79.875 50.3438C80.2969 51.4688 80.2969 52.7344 79.875 53.8594C78.4688 58.3594 73.5469 60.1876 68.9063 61.4532C67.2188 61.8751 67.9219 64.4063 69.6094 63.8438C75.5156 62.2969 80.1563 59.9063 82.5469 54.5626C83.6719 51.7501 82.5469 48.3751 79.7344 46.5469ZM50.0625 62.4376C45.4219 61.1719 41.9063 58.9219 39.0938 55.2657C37.9688 53.7188 37.5469 51.6094 38.5313 50.0626C40.6406 54.9844 47.5313 57.5157 53.7188 58.3594C52.3125 59.4844 51.0469 60.8907 50.0625 62.4376Z" fill="#FFE62E"/>
<path d="M59.0625 48.7969C65.0427 48.7969 69.8906 43.949 69.8906 37.9688C69.8906 31.9885 65.0427 27.1406 59.0625 27.1406C53.0823 27.1406 48.2344 31.9885 48.2344 37.9688C48.2344 43.949 53.0823 48.7969 59.0625 48.7969Z" fill="#FFE62E"/>
<path d="M59.0625 25.7344C59.7656 25.7344 59.9062 25.3125 59.9062 24.8906C59.9062 24.1875 59.0625 21.2344 59.0625 21.2344C59.0625 21.2344 58.2188 24.3281 58.2188 24.8906C58.2188 25.3125 58.3594 25.7344 59.0625 25.7344Z" fill="#FFE62E"/>
<path d="M63.7031 26.5781C64.2656 26.8594 64.6875 26.5781 64.8281 26.1562C65.1094 25.5938 65.3906 22.3594 65.3906 22.3594C65.3906 22.3594 63.4219 24.8906 63.1406 25.4531C63.1406 25.875 63.1406 26.4375 63.7031 26.5781ZM70.4531 42.6094C70.1719 43.1719 70.4531 43.5938 70.875 43.7344C71.4375 44.0156 74.6719 44.2969 74.6719 44.2969C74.6719 44.2969 72.1406 42.3281 71.5781 42.0469C71.1562 42.0469 70.5937 42.0469 70.4531 42.6094ZM54.4219 49.3594C53.8594 49.0781 53.4375 49.3594 53.2969 49.7813C53.0156 50.3438 52.7344 53.5781 52.7344 53.5781C52.7344 53.5781 54.7031 51.0469 54.9844 50.4844C54.9844 50.0625 54.9844 49.5 54.4219 49.3594ZM47.6719 33.3281C47.9531 32.7656 47.6719 32.3437 47.25 32.2031C46.6875 31.9219 43.4531 31.6406 43.4531 31.6406C43.4531 31.6406 45.9844 33.6094 46.5469 33.8906C46.9687 33.8906 47.5312 33.8906 47.6719 33.3281ZM67.7812 29.25C68.2031 29.6719 68.7656 29.5312 69.0469 29.25C69.4687 28.8281 71.0156 26.0156 71.0156 26.0156C71.0156 26.0156 68.2031 27.5625 67.7812 27.9844C67.3594 28.4062 67.3594 28.8281 67.7812 29.25ZM67.7812 46.6875C67.3594 47.1094 67.5 47.5312 67.7812 47.9531C68.2031 48.375 71.0156 49.9219 71.0156 49.9219C71.0156 49.9219 69.4687 47.1094 69.0469 46.6875C68.625 46.2656 68.2031 46.2656 67.7812 46.6875ZM50.3437 46.6875C49.9219 46.2656 49.3594 46.4063 49.0781 46.6875C48.6562 47.1094 47.1094 49.9219 47.1094 49.9219C47.1094 49.9219 49.9219 48.375 50.3437 47.9531C50.7656 47.5312 50.7656 47.1094 50.3437 46.6875ZM50.3437 29.25C50.7656 28.8281 50.625 28.2656 50.3437 27.9844C49.9219 27.5625 47.1094 26.0156 47.1094 26.0156C47.1094 26.0156 48.6562 28.8281 49.0781 29.25C49.5 29.6719 49.9219 29.6719 50.3437 29.25ZM70.4531 33.3281C70.7344 33.8906 71.1562 34.0313 71.5781 33.75C72.1406 33.4688 74.6719 31.5 74.6719 31.5C74.6719 31.5 71.4375 31.9219 70.875 32.0625C70.4531 32.3438 70.1719 32.625 70.4531 33.3281ZM63.7031 49.3594C63.1406 49.6406 63 50.0625 63.2812 50.4844C63.5625 51.0469 65.5312 53.5781 65.5312 53.5781C65.5312 53.5781 65.1094 50.3438 64.9688 49.7813C64.6875 49.3594 64.4062 49.0781 63.7031 49.3594ZM47.6719 42.6094C47.3906 42.0469 46.9687 41.9062 46.5469 42.1875C45.9844 42.4688 43.4531 44.4375 43.4531 44.4375C43.4531 44.4375 46.6875 44.0156 47.25 43.875C47.6719 43.5938 47.9531 43.3125 47.6719 42.6094ZM54.4219 26.5781C54.9844 26.2969 55.125 25.875 54.8438 25.4531C54.5625 24.8906 52.5938 22.3594 52.5938 22.3594C52.5938 22.3594 53.0156 25.4531 53.1562 26.1562C53.4375 26.5781 53.7188 26.8594 54.4219 26.5781ZM61.4531 25.875C62.0156 26.0156 62.4375 25.5938 62.4375 25.1719C62.5781 24.6094 62.2969 21.375 62.2969 21.375C62.2969 21.375 60.8906 24.1875 60.75 24.8906C60.6094 25.3125 60.8906 25.7344 61.4531 25.875ZM71.1562 40.3594C71.0156 40.9219 71.4375 41.3437 71.8594 41.3437C72.4219 41.4844 75.6562 41.2031 75.6562 41.2031C75.6562 41.2031 72.8437 39.7969 72.1406 39.6563C71.7187 39.5156 71.2969 39.7969 71.1562 40.3594ZM56.6719 50.0625C56.1094 49.9219 55.6875 50.3438 55.6875 50.7656C55.5469 51.3281 55.8281 54.5625 55.8281 54.5625C55.8281 54.5625 57.2344 51.75 57.375 51.0469C57.5156 50.625 57.2344 50.2031 56.6719 50.0625ZM46.9688 35.5781C47.1094 34.875 46.6875 34.5937 46.2656 34.5937C45.7031 34.4531 42.4688 34.7344 42.4688 34.7344C42.4688 34.7344 45.2812 36.1406 45.9844 36.2812C46.4062 36.4219 46.8281 36.1406 46.9688 35.5781ZM65.9531 27.7031C66.5156 27.9844 66.9375 27.8438 67.2187 27.4219C67.6406 26.8594 68.4844 23.9062 68.4844 23.9062C68.4844 23.9062 66.0938 26.0156 65.6719 26.4375C65.3906 26.8594 65.3906 27.4219 65.9531 27.7031ZM69.3281 44.8594C69.0469 45.4219 69.1875 45.8438 69.6094 46.125C70.1719 46.5469 73.125 47.3906 73.125 47.3906C73.125 47.3906 71.0156 45 70.5938 44.5781C70.1719 44.2969 69.6094 44.2969 69.3281 44.8594ZM52.1719 48.2344C51.6094 47.9531 51.1875 48.0938 50.9062 48.5156C50.625 48.9375 49.6406 52.0312 49.6406 52.0312C49.6406 52.0312 52.0312 49.9219 52.4531 49.5C52.7344 49.0781 52.7344 48.5156 52.1719 48.2344ZM48.7969 31.0781C49.0781 30.5156 48.9375 30.0938 48.5156 29.8125C48.0938 29.5312 45 28.5469 45 28.5469C45 28.5469 47.1094 30.9375 47.5312 31.3594C47.9531 31.6406 48.5156 31.6406 48.7969 31.0781ZM69.3281 31.0781C69.75 31.6406 70.1719 31.6406 70.5938 31.3594C71.1562 30.9375 73.125 28.5469 73.125 28.5469C73.125 28.5469 70.0312 29.5312 69.6094 29.8125C69.1875 30.2344 68.9062 30.6562 69.3281 31.0781ZM65.9531 48.2344C65.3906 48.6562 65.3906 49.0781 65.6719 49.5C66.0938 50.0625 68.4844 52.0312 68.4844 52.0312C68.4844 52.0312 67.5 48.9375 67.2187 48.5156C66.7969 48.0938 66.375 47.8125 65.9531 48.2344ZM48.7969 44.8594C48.375 44.2969 47.9531 44.2969 47.5312 44.5781C46.9687 45 45 47.3906 45 47.3906C45 47.3906 48.0938 46.4062 48.5156 46.125C48.9375 45.7031 49.2188 45.2812 48.7969 44.8594ZM52.1719 27.7031C52.7344 27.2812 52.7344 26.8594 52.4531 26.4375C52.0312 25.875 49.6406 23.9062 49.6406 23.9062C49.6406 23.9062 50.625 27 50.9062 27.4219C51.3281 27.8438 51.75 28.125 52.1719 27.7031ZM71.1562 35.5781C71.2969 36.1406 71.7187 36.4219 72.1406 36.2812C72.7031 36.1406 75.6562 34.7344 75.6562 34.7344C75.6562 34.7344 72.4219 34.4531 71.8594 34.5937C71.2969 34.5937 71.0156 34.875 71.1562 35.5781ZM61.4531 50.0625C60.8906 50.2031 60.6094 50.625 60.75 51.0469C60.8906 51.6094 62.2969 54.5625 62.2969 54.5625C62.2969 54.5625 62.5781 51.3281 62.4375 50.7656C62.4375 50.2031 62.1562 49.9219 61.4531 50.0625ZM46.9688 40.3594C46.8281 39.7969 46.4062 39.5156 45.9844 39.6563C45.4219 39.7969 42.4688 41.2031 42.4688 41.2031C42.4688 41.2031 45.7031 41.4844 46.2656 41.3437C46.8281 41.3437 47.1094 41.0625 46.9688 40.3594ZM56.6719 25.875C57.2344 25.7344 57.5156 25.3125 57.375 24.8906C57.2344 24.3281 55.8281 21.375 55.8281 21.375C55.8281 21.375 55.5469 24.6094 55.6875 25.1719C55.6875 25.7344 55.9687 26.0156 56.6719 25.875ZM23.2031 72.5625H21.6562V77.7656H18.5625C20.1094 79.0312 21.6563 80.0156 23.3438 81.1406V72.5625H23.2031ZM21.6562 12.2344V17.4375H23.2031V8.85938C21.5156 9.84375 19.9688 10.9687 18.4219 12.2344H21.6562ZM18.1406 12.375C17.7187 12.6562 17.2969 13.0781 16.875 13.5L21.0938 22.6406H17.5781V17.4375H16.0312V22.6406H12.5156L16.5938 13.7812C15.4688 14.7656 14.3438 15.8906 13.3594 17.1562L10.125 24.0469L15.6094 35.8594H12.0938V30.6562H10.5469V44.4375H12.0938V38.6719H15.75L13.6406 45L15.75 51.1875H12.0938V45.4219H10.5469V59.2031H12.0938V54H15.6094L10.125 65.8125L13.3594 72.7031C14.3438 73.8281 15.4688 74.9531 16.5938 76.0781L12.5156 67.2188H16.0312V72.4219H17.5781V67.2188H21.0938L16.875 76.3594C17.2969 76.7812 17.7187 77.0625 18.1406 77.4844L23.4844 65.8125L18 54H21.5156V59.2031H23.0625V45.4219H21.5156V51.1875H17.8594L19.9688 45L17.8594 38.8125H21.5156V44.5781H23.0625V30.7969H21.5156V36H18L23.4844 24.1875L18.1406 12.375ZM21.2344 64.5469H17.7188V59.3438H16.1719V64.5469H12.5156L16.875 55.2656L21.2344 64.5469ZM16.875 49.5L15.75 46.2656H18L16.875 49.5ZM18 43.7344H15.75L16.875 40.5L18 43.7344ZM16.875 34.875L12.5156 25.5938H16.0312V30.7969H17.5781V25.5938H21.0938L16.875 34.875Z" fill="#FFE62E"/>
</svg>
