<svg width="90" height="90" viewBox="0 0 90 90" fill="none" xmlns="http://www.w3.org/2000/svg">
<path d="M44.8594 2.8125C26.5781 2.8125 10.9688 14.625 5.20312 30.9375H84.7969C78.8906 14.625 63.2812 2.8125 44.8594 2.8125Z" fill="#F9F9F9"/>
<path d="M44.8594 87.1875C63.2812 87.1875 78.8906 75.375 84.6562 59.0625H5.20312C10.9688 75.5156 26.5781 87.1875 44.8594 87.1875Z" fill="#ED4C5C"/>
<path d="M5.20312 30.9375C3.65625 35.2969 2.8125 40.0781 2.8125 45C2.8125 49.9219 3.65625 54.7031 5.20312 59.0625H84.7969C86.3438 54.7031 87.1875 49.9219 87.1875 45C87.1875 40.0781 86.3438 35.2969 84.7969 30.9375H5.20312Z" fill="#428BC1"/>
</svg>
