<svg width="90" height="90" viewBox="0 0 90 90" fill="none" xmlns="http://www.w3.org/2000/svg">
<path d="M75.8363 0C81.1097 0 85.3566 4.26375 85.6069 9.28687V90L75.5719 81.4753L70.065 76.4662L64.0434 71.2209L66.5494 79.4841H13.9162C8.65687 79.4841 4.39594 75.4987 4.39594 70.1972V9.30375C4.39594 4.28063 8.65969 0.016875 13.9331 0.016875H75.8081L75.8363 0ZM52.8947 21.3131H52.7766L52.0144 22.0612C59.7937 24.3169 63.5569 27.8325 63.5569 27.8325C58.5478 25.3266 54.0197 24.0666 49.5084 23.5547C46.2572 23.0569 42.9891 23.3213 40.2356 23.5547H39.4734C37.7156 23.5547 33.9666 24.3169 28.9406 26.3222C27.1969 27.0844 26.1872 27.5822 26.1872 27.5822C26.1872 27.5822 29.9362 23.8162 38.2275 21.8109L37.7156 21.3131C37.7156 21.3131 31.4466 21.0628 24.6797 26.0747C24.6797 26.0747 17.9128 37.8675 17.9128 52.3969C17.9128 52.3969 21.6619 58.9162 31.9472 59.1637C31.9472 59.1637 33.4547 57.1725 34.965 55.4147C29.1937 53.6569 26.9381 50.1412 26.9381 50.1412C26.9381 50.1412 27.45 50.3916 28.1981 50.8894H28.4175C28.5356 50.8894 28.5947 50.9484 28.6509 51.0075V51.0356C28.71 51.0947 28.7691 51.1369 28.8703 51.1369C30.1162 51.6487 31.3453 52.1466 32.3578 52.6444C34.1156 53.3925 36.3572 54.1519 39.1106 54.6525C42.5981 55.1644 46.5947 55.4006 51.1509 54.6525C53.3925 54.1406 55.6481 53.6569 57.9037 52.6444C59.355 51.8963 61.155 51.1509 63.1322 49.8769C63.1322 49.8769 60.8906 53.3925 54.8691 55.1503C56.1009 56.8941 57.8419 58.8994 57.8419 58.8994C68.1384 58.6659 72.1378 52.1466 72.3572 52.425C72.3572 37.9097 65.5453 26.1028 65.5453 26.1028C59.4225 21.5466 53.6794 21.3722 52.6697 21.3722L52.875 21.2991L52.8947 21.3131ZM53.5247 37.8675C56.1628 37.8675 58.2863 40.1091 58.2863 42.8625C58.2863 45.6469 56.1488 47.8856 53.5247 47.8856C50.8866 47.8856 48.7631 45.6441 48.7631 42.8906C48.7631 40.1063 50.9006 37.8675 53.5247 37.8675ZM36.4894 37.8675C39.1106 37.8675 41.2369 40.1091 41.2369 42.8625C41.2369 45.6469 39.0994 47.8856 36.4753 47.8856C33.8372 47.8856 31.6997 45.6441 31.6997 42.8906C31.6997 40.1063 33.8372 37.8675 36.4753 37.8675H36.4894Z" fill="black"/>
</svg>
