<svg width="90" height="90" viewBox="0 0 90 90" fill="none" xmlns="http://www.w3.org/2000/svg">
<path d="M45 0C19.6875 0 0 19.6875 0 45C0 74.5312 26.7188 87.1875 30.9375 87.1875C33.75 87.1875 33.75 85.7812 33.75 84.375V77.3438C23.9062 80.1562 19.6875 74.5312 18.2812 70.3125C18.2812 70.3125 18.2812 68.9062 15.4688 66.0938C14.0625 64.6875 8.4375 61.875 14.0625 61.875C18.2812 61.875 21.0938 67.5 21.0938 67.5C25.3125 73.125 30.9375 71.7188 33.75 70.3125C33.75 67.5 36.5625 64.6875 36.5625 64.6875C25.3125 63.2812 16.875 59.0625 16.875 43.5938C16.875 37.9688 18.2812 33.75 21.0938 30.9375C21.0938 30.9375 18.2812 25.3125 21.0938 18.2812C21.0938 18.2812 28.125 18.2812 33.75 23.9062C37.9688 21.0938 52.0312 21.0938 56.25 23.9062C61.875 18.2812 68.9062 18.2812 68.9062 18.2812C71.7188 28.125 68.9062 30.9375 68.9062 30.9375C71.7188 33.75 73.125 37.9688 73.125 43.5938C73.125 59.0625 63.2812 63.2812 53.4375 64.6875C54.8438 66.0938 56.25 68.9062 56.25 73.125V84.375C56.25 85.7812 56.25 87.1875 59.0625 87.1875C63.2812 87.1875 90 74.5312 90 45C90 19.6875 70.3125 0 45 0Z" fill="black"/>
</svg>
