<svg width="90" height="90" viewBox="0 0 90 90" fill="none" xmlns="http://www.w3.org/2000/svg">
<path fill-rule="evenodd" clip-rule="evenodd" d="M0 45C0 20.1472 20.1472 0 45 0C69.8528 0 90 20.1472 90 45C90 69.8528 69.8528 90 45 90C20.1472 90 0 69.8528 0 45ZM45.0022 21C38.4842 21 37.6662 21.0285 35.1061 21.145C32.5511 21.262 30.8071 21.6665 29.2811 22.26C27.7026 22.873 26.3636 23.693 25.0295 25.0275C23.6945 26.3616 22.8745 27.7006 22.2595 29.2786C21.6645 30.8051 21.2595 32.5496 21.1445 35.1036C21.03 37.6637 21 38.4822 21 45.0003C21 51.5183 21.029 52.3338 21.145 54.8939C21.2625 57.4489 21.667 59.1929 22.26 60.7189C22.8735 62.2974 23.6935 63.6364 25.028 64.9705C26.3616 66.3055 27.7006 67.1275 29.2781 67.7405C30.8051 68.334 32.5496 68.7385 35.1041 68.8555C37.6642 68.972 38.4817 69.0005 44.9992 69.0005C51.5178 69.0005 52.3333 68.972 54.8934 68.8555C57.4484 68.7385 59.1944 68.334 60.7214 67.7405C62.2994 67.1275 63.6364 66.3055 64.97 64.9705C66.305 63.6364 67.125 62.2974 67.74 60.7194C68.33 59.1929 68.735 57.4484 68.855 54.8944C68.97 52.3343 69 51.5183 69 45.0003C69 38.4822 68.97 37.6642 68.855 35.1041C68.735 32.5491 68.33 30.8051 67.74 29.2791C67.125 27.7006 66.305 26.3616 64.97 25.0275C63.6349 23.6925 62.2999 22.8725 60.7199 22.26C59.1899 21.6665 57.4449 21.262 54.8899 21.145C52.3298 21.0285 51.5148 21 44.9948 21H45.0022Z" fill="black"/>
<path fill-rule="evenodd" clip-rule="evenodd" d="M42.8492 25.325C43.4882 25.324 44.2012 25.325 45.0022 25.325C51.4103 25.325 52.1698 25.348 54.7003 25.463C57.0404 25.57 58.3104 25.9611 59.1564 26.2896C60.2764 26.7246 61.0749 27.2446 61.9144 28.0846C62.7544 28.9246 63.2744 29.7246 63.7104 30.8446C64.0389 31.6896 64.4305 32.9596 64.537 35.2996C64.652 37.8297 64.677 38.5897 64.677 44.9948C64.677 51.3998 64.652 52.1598 64.537 54.6898C64.43 57.0299 64.0389 58.2999 63.7104 59.1449C63.2754 60.2649 62.7544 61.0624 61.9144 61.9019C61.0744 62.7419 60.2769 63.2619 59.1564 63.6969C58.3114 64.0269 57.0404 64.4169 54.7003 64.5239C52.1703 64.639 51.4103 64.664 45.0022 64.664C38.5937 64.664 37.8342 64.639 35.3042 64.5239C32.9641 64.4159 31.6941 64.0249 30.8476 63.6964C29.7276 63.2614 28.9276 62.7414 28.0876 61.9014C27.2476 61.0614 26.7276 60.2634 26.2916 59.1429C25.9631 58.2979 25.5715 57.0279 25.465 54.6879C25.35 52.1578 25.327 51.3978 25.327 44.9887C25.327 38.5797 25.35 37.8237 25.465 35.2937C25.572 32.9536 25.9631 31.6836 26.2916 30.8376C26.7266 29.7176 27.2476 28.9176 28.0876 28.0776C28.9276 27.2376 29.7276 26.7176 30.8476 26.2816C31.6936 25.9516 32.9641 25.5615 35.3042 25.454C37.5182 25.354 38.3762 25.324 42.8492 25.319V25.325ZM57.8134 29.3101C56.2234 29.3101 54.9334 30.5986 54.9334 32.1891C54.9334 33.7791 56.2234 35.0691 57.8134 35.0691C59.4034 35.0691 60.6934 33.7791 60.6934 32.1891C60.6934 30.5991 59.4034 29.3101 57.8134 29.3101ZM45.0022 32.6751C38.1957 32.6751 32.6771 38.1937 32.6771 45.0003C32.6771 51.8068 38.1957 57.3229 45.0022 57.3229C51.8088 57.3229 57.3254 51.8068 57.3254 45.0003C57.3254 38.1937 51.8088 32.6751 45.0022 32.6751Z" fill="black"/>
<path fill-rule="evenodd" clip-rule="evenodd" d="M45.0023 37.0002C49.4203 37.0002 53.0023 40.5817 53.0023 45.0003C53.0023 49.4183 49.4203 53.0003 45.0023 53.0003C40.5837 53.0003 37.0022 49.4183 37.0022 45.0003C37.0022 40.5817 40.5837 37.0002 45.0023 37.0002Z" fill="black"/>
</svg>
