<svg width="90" height="90" viewBox="0 0 90 90" fill="none" xmlns="http://www.w3.org/2000/svg">
<path d="M45 0C20.1469 0 0 20.1469 0 45C0 69.8531 20.1469 90 45 90C69.8531 90 90 69.8531 90 45C90 20.1469 69.8531 0 45 0ZM33.9844 63.6516H24.8719V34.3266H33.9844V63.6516ZM29.3719 30.7266C26.4937 30.7266 24.6328 28.6875 24.6328 26.1656C24.6328 23.5922 26.55 21.6141 29.4891 21.6141C32.4281 21.6141 34.2281 23.5922 34.2844 26.1656C34.2844 28.6875 32.4281 30.7266 29.3719 30.7266ZM67.2656 63.6516H58.1531V47.4C58.1531 43.6172 56.8312 41.0484 53.5359 41.0484C51.0187 41.0484 49.5234 42.7875 48.8625 44.4609C48.6188 45.0563 48.5578 45.9 48.5578 46.7391V63.6469H39.4406V43.6781C39.4406 40.0172 39.3234 36.9562 39.2016 34.3219H47.1187L47.5359 38.3953H47.7188C48.9188 36.4828 51.8578 33.6609 56.775 33.6609C62.7703 33.6609 67.2656 37.6781 67.2656 46.3125V63.6516Z" fill="black"/>
</svg>
